# xmcd
# 
# Track frame offsets:
#     150
#     11240
#     25775
#     40452
#     51312
#     61230
#     77095
#     96227
#     113947
#     126825
#     144512
#     159907
#     174812
#     191987
# 
# Disc length: 2726
# 
# Revision: 1
# Processed by: cddbd v1.5.2PL0 Copyright (c) Steve Scherf et al.
# Submitted via: BonkEnc v1.0.8
# 
DISCID=bc0aa40e
DTITLE=Sergio Reis - Série Aplauso
DYEAR=0
DGENRE=Sertanejo
TTITLE0=Peão de boiadeiro
TTITLE1=Meu Cavalo Zaino
TTITLE2=Baita macho
TTITLE3=Pingo d'água
TTITLE4=Adeus Mariana
TTITLE5=Boiadeiro errante
TTITLE6=O menino da gaita
TTITLE7=Bandeira do divino
TTITLE8=João de Barro
TTITLE9=Serafin e seus filhos
TTITLE10=Coração de luto
TTITLE11=Cálix bento
TTITLE12=Filho adotivo
TTITLE13=Chalana
EXTD=
EXTT0=
EXTT1=
EXTT2=
EXTT3=
EXTT4=
EXTT5=
EXTT6=
EXTT7=
EXTT8=
EXTT9=
EXTT10=
EXTT11=
EXTT12=
EXTT13=
PLAYORDER=
